<svg
              id="logo-icon"
              height="50"
              viewBox="0 0 39 67"
              fill="none"
              xmlns="http://www.w3.org/2000/svg"
            >
              <path
                d="M18.0665 42.8859C18.0665 42.8859 19.5424 50.8244 15.1155 52.7917C10.6887 54.7589 -2.09831 52.7917 3.31206 37.0537C8.72242 21.3157 12.988 17.5239 18.5579 6C23.9678 20.2625 40.6889 35.5087 36.2626 52.2303C31.8363 68.9519 9.21388 63.542 9.21388 63.542"
                stroke="#FFD700"
                stroke-width="4"
              />
              <path
                d="M13.1572 32.5662L23.9607 32.5662L23.9607 43.3697L13.1572 43.3697L13.1572 32.5662Z"
                fill="#FFD700"
                stroke="#FFD700"
              />
              <path
                d="M15.123 27.6477L16.0903 27.6477L16.0903 33.5331L15.123 33.5331L15.123 27.6477Z"
                fill="#FFD700"
                stroke="#FFD700"
              />
              <path
                d="M20.042 27.6477L21.0092 27.6477L21.0092 33.5331L20.042 33.5331L20.042 27.6477Z"
                fill="#FFD700"
                stroke="#FFD700"
              />
            </svg>